<svg id="Group_1819" data-name="Group 1819" xmlns="http://www.w3.org/2000/svg" xmlns:xlink="http://www.w3.org/1999/xlink" width="110" height="110" viewBox="0 0 110 110">
  <defs>
    <clipPath id="clip-path">
      <circle id="Ellipse_113" data-name="Ellipse 113" cx="55" cy="55" r="55" fill="#f8f8fa" stroke="rgba(112,112,112,0.03)" stroke-width="1"/>
    </clipPath>
  </defs>
  <g id="Ellipse_112" data-name="Ellipse 112" fill="#f8f8fa" stroke="rgba(112,112,112,0.03)" stroke-width="1">
    <circle cx="55" cy="55" r="55" stroke="none"/>
    <circle cx="55" cy="55" r="54.5" fill="none"/>
  </g>
  <g id="Mask_Group_3" data-name="Mask Group 3" clip-path="url(#clip-path)">
    <g id="Group_1818" data-name="Group 1818" transform="matrix(0.966, 0.259, -0.259, 0.966, 26.553, 13.217)">
      <path id="Path" d="M.891,26.417c-.249,1.5.513,3.118.152,4.6-.3,1.225-.695,2.426-1.036,3.641-.028.1.033.22.052.331.081-.072.2-.129.238-.22.244-.517.486-1.037.7-1.567,1.136-2.792,2.288-5.578,3.386-8.386.545-1.395,1.017-2.821,1.467-4.25.426-1.352,3.727-.207,3.523.993a3.9,3.9,0,0,0-.014.58,2.479,2.479,0,0,0,.39-.4c.433-.7.877-1.395,1.262-2.12.828-1.56,3.883-2.95,3.179-1.338-.4.909-.981,1.736-1.466,2.609a1.84,1.84,0,0,0-.115.495,2.255,2.255,0,0,0,.35-.281c.7-.828,1.38-1.667,2.076-2.5.787-.938,1.648-1.822,2.36-2.814,1.494-2.083,5.385-4.415,4.919-3.5-.674,1.325-2.046,4.208-1.947,4.11a6.073,6.073,0,0,0,.412-.54A23.589,23.589,0,0,0,24.752,9c.456-1.275.453-1.393,1.782-1.284a11.294,11.294,0,0,1,2.495.52c.919.294,1.789.737,2.693,1.082a1.657,1.657,0,0,0,.626-.026c-.016-.182-.026-.364-.05-.544-.042-.314-.105-.626-.139-.941-.1-.914-.2-1.828-.264-2.744a.631.631,0,0,1,.28-.429c.067-.048.276.036.379.116.187.145.314.425.515.484,1.728.506,2.317,1.242,1.367,0-.329-.43,0-5.87-3.5-5.175-.322.064,2.427,3.568,2.129,3.67-.378.13-4.13-2.132-4.488-1.948-.7.359,1.182,4.132.447,4.656-.848.605-4.651-1.534-5.768-.789-.579.386-5.639,8.2-6.52,8.626-.729.352,3.373-8.165,2.849-7.838-1.1.685-9.838,13.177-10.229,13.177S13.2,9.553,12.1,10.244c-1.494.945-4.366,8.925-5.643,9.471-1.105.472.331-6.862-1.4-5.847C3.51,14.776.971,25.937.891,26.417Z" transform="translate(15.687 11.439)" fill="#e7eaee"/>
      <path id="Shape" d="M35.31,155.726h0a2.351,2.351,0,0,0-.263-.023.75.75,0,0,1-.492-.125,12.087,12.087,0,0,1-1.421-1.834c-.309-.514-.627-1.034-.935-1.538l0-.007c-1.049-1.715-2.134-3.487-3.027-5.316-.948-1.943-1.76-3.993-2.545-5.975-.276-.7-.561-1.416-.847-2.12l-.3-.724v0c-.648-1.586-1.318-3.227-1.887-4.872-.41-1.186-.724-2.428-1.027-3.629-.071-.28-.144-.57-.218-.857-.09-.349-.161-.709-.23-1.058v0a11.52,11.52,0,0,0-.425-1.7c-.1-.27-.739-.43-1.12-.467a2.64,2.64,0,0,1-1.4-.378,2.7,2.7,0,0,1-.716-1.31c-.159-.471-.324-.946-.482-1.406-.471-1.365-.958-2.776-1.367-4.185a15.282,15.282,0,0,1-.538-3.2q-.016-.237-.033-.474l0-.07c-.142-2.056-.288-4.181-.227-6.266a33.249,33.249,0,0,1,.723-5.262,27.22,27.22,0,0,1,2.052-5.757h0c.25-.563.508-1.146.75-1.723a29.7,29.7,0,0,1,4.882-7.757,95.26,95.26,0,0,1,6.572-7.131,52.361,52.361,0,0,1,4.639-3.973,57.626,57.626,0,0,1,5.065-3.436c.89-.538,1.822-1.158,3.023-2.009a1.08,1.08,0,0,0,.391-.727c.017-.292.037-.588.056-.875a24.616,24.616,0,0,0,.069-3.42,15.382,15.382,0,0,0-.476-2.519v0c-.094-.379-.191-.771-.272-1.158-.143-.68-.688-.853-1.282-.984a27.66,27.66,0,0,1-6.139-2.161,42.427,42.427,0,0,1-5.6-3.308c-.369-.254-.73-.531-1.079-.8-.4-.3-.8-.617-1.224-.9a2.056,2.056,0,0,0-1.023-.269c-.155,0-.318-.006-.5-.006-.293,0-.585.006-.867.011h-.009c-.282.005-.573.011-.86.011-.475,0-.862-.015-1.218-.048a8.43,8.43,0,0,1-4.359-1.868,3.406,3.406,0,0,1-.938-1.039,2.146,2.146,0,0,1-.255-1.375,3.229,3.229,0,0,1,.545-1.419,2.935,2.935,0,0,1,1.2-.972c.207-.094.421-.186.627-.275l.3-.13a4.773,4.773,0,0,1-.371-.326,1.766,1.766,0,0,0-.831-.544,6.205,6.205,0,0,1-2.154-.759,17.888,17.888,0,0,1-1.873-1.262l-.331-.244a.428.428,0,0,1-.149-.152c-.133-.319-.241-.474-.331-.474s-.161.18-.224.355a2.068,2.068,0,0,1-.1.239l-.164.314c-.85,1.629-1.728,3.314-2.6,4.971a.9.9,0,0,1-.321.362,5.366,5.366,0,0,1-.591.277h0c-.08.034-.164.069-.244.1a3.456,3.456,0,0,0-.084-.347,1.305,1.305,0,0,1-.073-.714c.269-.805.567-1.615.856-2.4.4-1.087.815-2.211,1.155-3.337a36.124,36.124,0,0,0,1.142-5.025c.242-1.606.4-3.252.549-4.844v-.01c.06-.629.121-1.28.187-1.92.059-.566.105-1.147.139-1.727a1.006,1.006,0,0,0-.049-.31c-.012-.047-.025-.095-.035-.142a1.519,1.519,0,0,1-.121.11.565.565,0,0,0-.207.25,19.418,19.418,0,0,1-2.307,5.116,44.769,44.769,0,0,1-3.024,4.463,25.656,25.656,0,0,1-5.1,4.667L2.9,43.94c-.2.154-.4.321-.591.482a10.3,10.3,0,0,1-.917.716,1.436,1.436,0,0,1-.733.272.617.617,0,0,1-.548-.327A1.192,1.192,0,0,1,.156,44a23.115,23.115,0,0,0,2.28-3.639,26.568,26.568,0,0,0,1.607-3.976,27.14,27.14,0,0,0,1.3-5.9c.049-.6.121-1.212.19-1.8.086-.733.176-1.49.221-2.237.139-2.285.236-4.553.289-6.741A24.251,24.251,0,0,1,7.491,11.02,20.96,20.96,0,0,1,10.68,5.548,16.971,16.971,0,0,1,15.507,1.5,12.466,12.466,0,0,1,18.856.3,13.48,13.48,0,0,1,21.823,0c.111,0,.224,0,.337,0a24.358,24.358,0,0,1,6.233.972,31.277,31.277,0,0,1,5.965,2.16,8.068,8.068,0,0,1,.864.545c.178.123.361.25.547.365l.064.04a.911.911,0,0,0,.447.186.473.473,0,0,0,.374-.231,2.92,2.92,0,0,1,1.2-.938,3.878,3.878,0,0,1,1.524-.3,4.414,4.414,0,0,1,2.968,1.12c.337.317.662.659.976.99h0a15.677,15.677,0,0,0,1.562,1.5A15.243,15.243,0,0,1,47.88,9.9,22.35,22.35,0,0,1,49.4,12.429a13.517,13.517,0,0,1,1.051,2.755,8.651,8.651,0,0,1,.173,2.378,1.8,1.8,0,0,0,.275,1.022,4.7,4.7,0,0,0,.654.781c.07.073.143.148.214.224a.023.023,0,0,0,.017.005.815.815,0,0,0,.368-.2,2.506,2.506,0,0,1,1.8-.861c.057,0,.113,0,.168,0a2.4,2.4,0,0,1,1.358.381,2.359,2.359,0,0,1,.847,1.042,26.51,26.51,0,0,1,1.438,4.258c.345,1.387.592,2.823.83,4.211.061.355.124.721.188,1.085.056.319.086.651.114.971a7.237,7.237,0,0,0,.23,1.463c.266.874.595,1.745.913,2.587v0c.21.556.427,1.131.625,1.7A24.7,24.7,0,0,1,61.922,42q.022.242.045.484v.009c.112,1.181.227,2.4.228,3.6a18.4,18.4,0,0,1-.3,3.173c-.181,1.042-.423,2.073-.676,3.126a5.8,5.8,0,0,0-.049,1.74c.019.284.039.577.042.87.066.436.13.873.191,1.295.177,1.221.344,2.374.584,3.532.292,1.414.7,2.809,1.1,4.116a4.688,4.688,0,0,0,.782,1.593,1.919,1.919,0,0,0,1.161.59c.786.1,1.589.179,2.365.252h0c1.022.1,2.078.2,3.107.359,1.882.3,3.783.674,5.622,1.036h.009c.631.124,1.283.253,1.925.377a3.12,3.12,0,0,1,.943.3.805.805,0,0,1,.262.36c.032.065.065.132.1.191a1.682,1.682,0,0,0-.154.108.616.616,0,0,1-.319.164h-.01c-1.521-.079-2.8-.157-4.1-.28-.878-.083-1.768-.21-2.627-.334l-.625-.089c-.6-.085-1.212-.179-1.8-.27-.335-.052-.681-.105-1.023-.156-.3-.045-.6-.08-.9-.114a11.836,11.836,0,0,1-1.985-.344,1.709,1.709,0,0,0-.479-.081c-.494,0-.7.34-1,.855l-.01.017A33.517,33.517,0,0,1,61.3,72.943a19.592,19.592,0,0,1-2.119,2.2,13.591,13.591,0,0,1-2.51,1.762,10.309,10.309,0,0,1-4.942,1.434,7.767,7.767,0,0,1-1.636-.176c-.369-.08-.747-.145-1.112-.208-.4-.069-.809-.14-1.209-.229a4.786,4.786,0,0,1-1.949-.937A7.9,7.9,0,0,1,44.348,75.2c-.4-.545-.813-1.094-1.235-1.631a.563.563,0,0,0-.439-.266.865.865,0,0,0-.452.17c-.664.426-1.352.838-2.017,1.235-.857.513-1.743,1.042-2.585,1.608a40.133,40.133,0,0,0-3.75,2.844c-1.648,1.415-3.4,2.952-5.023,4.6a48.287,48.287,0,0,0-6.758,8.63,44.816,44.816,0,0,0-3.211,6.872l0,.008a30.756,30.756,0,0,0-1.639,5.885,15.849,15.849,0,0,0-.172,2.949c0,.434,0,.883-.011,1.321,0,.051,0,.1,0,.154,0,.067,0,.136,0,.2a15.052,15.052,0,0,0,.167,3.4c.173,1.129.442,2.263.707,3.319.3,1.193.651,2.394.99,3.556v0c.3,1.012.6,2.058.873,3.1a1.244,1.244,0,0,0,.536.8,1.85,1.85,0,0,0,.875.225l.243.015h0c1.683.107,3.424.217,5.138.268.124,0,.25.005.376.005a21.8,21.8,0,0,0,5.287-.809c.38-.1.77-.175,1.147-.252a10.364,10.364,0,0,0,2.823-.865.111.111,0,0,1,.052-.011.577.577,0,0,1,.172.044,1.046,1.046,0,0,0,.116.037,1.246,1.246,0,0,0-.024.138c-.014.1-.029.209-.087.246l-.227.148,0,0a4.872,4.872,0,0,1-1.1.6c-1.736.578-3.306,1.091-4.943,1.517a20.587,20.587,0,0,1-2.967.467l-.189.02c-.8.086-1.662.132-2.726.143h-.056a10.918,10.918,0,0,1-1.148-.082c-.171-.018-.348-.037-.523-.052l-.048,0c-.07-.006-.136-.012-.192-.012-.1,0-.158.019-.19.064-.049.069-.036.2.043.433.417,1.21.817,2.449,1.2,3.647v0c.492,1.527,1,3.105,1.552,4.642.423,1.18.967,2.34,1.492,3.461v0c.183.39.372.793.553,1.19.34.747.681,1.508,1.011,2.245.937,2.09,1.906,4.251,2.95,6.33.632,1.259,1.4,2.477,2.14,3.654l0,0c.321.509.652,1.036.968,1.559.143.236.29.472.432.7.286.459.582.934.847,1.415a.71.71,0,0,1,.007.43,2.009,2.009,0,0,0-.028.215Zm8.907-93.854a.6.6,0,0,0-.346.134.3.3,0,0,0-.02.281A10.163,10.163,0,0,1,45,65.418a21.512,21.512,0,0,1,.35,3.317,2.652,2.652,0,0,1-.009.281,1.33,1.33,0,0,0,.028.5,2.3,2.3,0,0,1,.109,1.255,1.823,1.823,0,0,1-.7,1.036c-.066.051-.135.1-.2.15h0a2.615,2.615,0,0,0-.483.413c-.14.168-.3.507-.229.615.16.238.315.493.465.739a5.987,5.987,0,0,0,1.525,1.9,13.02,13.02,0,0,0,1.615.979,6,6,0,0,0,1.868.591,11.281,11.281,0,0,0,1.493.1,9.233,9.233,0,0,0,4.127-.945,16.486,16.486,0,0,0,4.64-3.453,24.027,24.027,0,0,0,3.287-4.368,1.8,1.8,0,0,0,.214-2.047,11.568,11.568,0,0,1-.712-1.428c-.14-.316-.285-.643-.451-.972a40.383,40.383,0,0,1-1.105-4.2,36.044,36.044,0,0,1-.616-4.3,1.254,1.254,0,0,0-.121-.384c-.025-.058-.051-.118-.072-.177-.039.041-.084.08-.126.118a.925.925,0,0,0-.238.273,8.218,8.218,0,0,1-1.392,2.047,17.373,17.373,0,0,1-1.816,1.684,13.879,13.879,0,0,1-8.111,2.976c-.2.014-.41.022-.629.022a20.664,20.664,0,0,1-2.113-.147c-.443-.046-.9-.094-1.35-.121ZM21.081,26.279c-.03.066-.063.134-.092.193-.066.136-.134.276-.188.419-.222.587-.449,1.183-.668,1.76l-.015.039c-.66,1.737-1.343,3.534-1.989,5.31-.479,1.315-.957,2.751-1.506,4.519a1.2,1.2,0,0,0,.1.909c.868,1.284,1.783,2.533,2.563,3.585.165.222.331.45.491.67a27.822,27.822,0,0,0,1.9,2.408,53.825,53.825,0,0,0,3.982,3.979,59.234,59.234,0,0,0,4.719,3.776,38.458,38.458,0,0,0,8.16,4.609,23.13,23.13,0,0,0,7.385,1.807c.283.016.576.024.871.024a20.368,20.368,0,0,0,3.364-.3,11.445,11.445,0,0,0,8.473-6.229,19.179,19.179,0,0,0,1.861-8.8,9.481,9.481,0,0,0-.138-1.578v-.005c-.046-.317-.091-.643-.132-.93-.168-1.2-.342-2.433-.568-3.639a29.259,29.259,0,0,0-.908-3.6,25.31,25.31,0,0,0-1.395-3.444c-.244-.493-.5-1.01-.718-1.467-.792-1.629-1.612-3.314-2.55-4.892a40.07,40.07,0,0,0-3.769-5.229C49,18.607,47.628,17.131,45.969,15.4a1.213,1.213,0,0,0-.2-.158c-.033-.022-.067-.045-.1-.069a1.372,1.372,0,0,1-.071.139.455.455,0,0,0-.092.286q.043.173.086.346a17.678,17.678,0,0,0,.6,2.081,2.982,2.982,0,0,0,.418.682,3.308,3.308,0,0,1,.4.625,1,1,0,0,1-.072.649c-.034.073-.071.116-.105.126a2.755,2.755,0,0,1-.739.112,1.472,1.472,0,0,1-.5-.077c-1.146-.412-2.3-.857-3.42-1.288h0c-.78-.3-1.586-.611-2.383-.908a1.8,1.8,0,0,0-.616-.134c-.422,0-.7.256-.986.913l-.009.021a25.277,25.277,0,0,1-1.735,3.466,27.309,27.309,0,0,1-2.727,3.58,13.787,13.787,0,0,1-1.973,1.695c-.183.138-.372.281-.557.425a.433.433,0,0,1-.273.065c-.053,0-.109,0-.163-.006s-.11-.006-.162-.006l-.064,0c.012-.066.02-.135.028-.2a1.107,1.107,0,0,1,.1-.423,6.126,6.126,0,0,1,.412-.6c.1-.128.193-.261.283-.4.151-.228.3-.457.452-.678a31.109,31.109,0,0,0,3.028-5.239,1.362,1.362,0,0,0,.074-.43c0-.068.009-.139.018-.207-.048.046-.1.09-.15.133a1.548,1.548,0,0,0-.3.307c-.345.524-.7,1.062-1.034,1.581l0,0c-.535.821-1.089,1.669-1.668,2.54-.131.175-.26.357-.385.533l0,0a13.363,13.363,0,0,1-.882,1.149l-.379.425-.007.008c-1.087,1.222-2.211,2.485-3.389,3.655-.713.708-1.511,1.355-2.282,1.98-.271.22-.552.448-.827.676a2.134,2.134,0,0,1-.428.254h0c-.068.034-.139.069-.206.106.011-.086.014-.18.017-.27a1.1,1.1,0,0,1,.1-.544c.272-.426.568-.848.855-1.256A22.244,22.244,0,0,0,25.2,29.184c.676-1.205,1.295-2.47,1.893-3.692.194-.4.394-.8.593-1.206A.586.586,0,0,0,27.707,24c0-.048-.007-.1-.005-.143-.031.031-.065.061-.1.089a.958.958,0,0,0-.192.2c-.273.438-.55.877-.818,1.3v0c-.737,1.168-1.5,2.376-2.207,3.588a36.318,36.318,0,0,1-4.762,6.311.629.629,0,0,1-.257.136c-.045.016-.091.032-.133.051a1.692,1.692,0,0,0-.048-.174A.59.59,0,0,1,19.141,35a7.566,7.566,0,0,1,.389-.8c.068-.126.137-.256.2-.386l.167-.333.01-.02c.991-1.968,2.016-4,1.563-6.375a1.834,1.834,0,0,0-.249-.556C21.174,26.45,21.124,26.365,21.081,26.279ZM20.64,47.718c-.656,0-1.277.536-1.66,1.433a1.607,1.607,0,0,0,.674,1.791l.117.067a8.945,8.945,0,0,0,2.085.968c.944.249,1.928.409,2.879.563.336.054.682.111,1.024.17h.01c.045,0,.1-.049.179-.117.032-.028.067-.058.106-.09l-1.09-1.053-.006-.006c-.988-.956-2.01-1.944-3.023-2.909-.063-.06-.124-.122-.189-.188a1.918,1.918,0,0,0-.83-.6A1.3,1.3,0,0,0,20.64,47.718Zm-4.8-7.26c-.085,0-.16.1-.229.294-.118.337-.263.671-.4.994h0c-.1.231-.2.47-.3.709-.041.106-.031.307.034.354.393.284.784.558,1.2.848l0,0c.383.269.779.546,1.189.841l.39.236c.338.206.687.418,1.04.611a.841.841,0,0,0,.331.072c.053,0,.108.009.16.018-.02-.052-.038-.107-.055-.16a1.277,1.277,0,0,0-.143-.332c-.795-1.158-1.845-2.683-2.92-4.2l-.029-.042c-.075-.108-.168-.243-.267-.243Zm-.7-15.162h0c.021.075.047.15.073.223A1.643,1.643,0,0,1,15.33,26a49.569,49.569,0,0,1-.576,9.549c-.267,1.611-.628,3.161-.947,4.465-.191.784-.426,1.57-.653,2.331-.128.428-.26.872-.383,1.31a.437.437,0,0,0,.025.223c.01.036.02.073.027.108.025-.023.055-.044.083-.065a.465.465,0,0,0,.156-.155c.236-.5.484-1.033.7-1.567.245-.6.495-1.214.737-1.807l.024-.058c.871-2.132,1.771-4.338,2.625-6.521.578-1.478,1.066-2.978,1.467-4.25.207-.657.393-1.334.573-1.988.19-.691.386-1.4.608-2.1a1.544,1.544,0,0,1,1.427-.964.826.826,0,0,1,.738.356,3.975,3.975,0,0,1,.757,2.088,14.118,14.118,0,0,1-.361,2.476c-.076.368-.155.748-.218,1.122a2.1,2.1,0,0,0-.016.4c0,.06,0,.123,0,.184.042-.042.087-.082.131-.12a1.326,1.326,0,0,0,.259-.277l.189-.3c.366-.588.744-1.2,1.074-1.817.821-1.547,1.617-3.11,2.428-4.71.186-.367.363-.746.533-1.112.149-.321.3-.652.464-.975a.7.7,0,0,1,.652-.432,1.378,1.378,0,0,1,.48.1.921.921,0,0,1,.56.423.576.576,0,0,1-.007.452c-.1.27-.206.546-.3.789h0c-.512,1.362-1.042,2.77-1.633,4.125a14.683,14.683,0,0,1-.934,1.706c-.178.294-.363.6-.532.9a.977.977,0,0,0-.088.334c-.008.054-.016.109-.027.161.037-.03.078-.058.117-.085a1.2,1.2,0,0,0,.234-.2c.362-.431.726-.871,1.078-1.3.326-.394.663-.8,1-1.2.262-.312.536-.623.8-.924a24.472,24.472,0,0,0,1.558-1.89c.895-1.248,1.774-2.539,2.624-3.787h0c.568-.834,1.155-1.7,1.743-2.54a1.614,1.614,0,0,1,.748-.587.392.392,0,0,1,.124-.019,1.564,1.564,0,0,1,.541.156l.1.039a.364.364,0,0,1,.116.329c-.089.257-.175.522-.257.777v0a14.645,14.645,0,0,1-.814,2.13c-.448.881-.971,1.742-1.477,2.575l0,0c-.254.418-.517.851-.767,1.281a.79.79,0,0,0-.076.3c-.006.049-.013.1-.022.146.042-.019.087-.036.131-.052a.735.735,0,0,0,.266-.14,2.256,2.256,0,0,0,.256-.326c.049-.072.1-.145.156-.214a23.568,23.568,0,0,0,3.971-6.859l.03-.083.013-.037a3.248,3.248,0,0,1,.431-.954.836.836,0,0,1,.72-.241c.145,0,.321.009.589.031a11.288,11.288,0,0,1,2.495.52c.552.177,1.1.411,1.623.638.35.151.711.306,1.071.444a.466.466,0,0,0,.168.027,1.693,1.693,0,0,0,.255-.027c.068-.011.138-.022.2-.026,0-.053-.009-.107-.013-.16v-.011c-.009-.123-.019-.249-.036-.374s-.039-.262-.06-.389v0c-.029-.18-.059-.366-.079-.55l-.024-.227c-.089-.824-.181-1.677-.239-2.517a.63.63,0,0,1,.28-.429A.1.1,0,0,1,45,13.625a.656.656,0,0,1,.322.13,1.359,1.359,0,0,1,.2.216.723.723,0,0,0,.31.267,5.858,5.858,0,0,1,2.2,1.241,15.423,15.423,0,0,1,1.725,1.844.9.9,0,0,0,.211.167c.035.023.072.046.105.071,0-.047.013-.1.021-.143a.787.787,0,0,0,.014-.3,11.552,11.552,0,0,0-.724-2.173,10.092,10.092,0,0,0-1.177-1.97c-.427-.558-.847-1.138-1.253-1.7-.734-1.014-1.493-2.063-2.324-3.021A17.967,17.967,0,0,0,42,5.928l-.4-.314a3.592,3.592,0,0,0-2.141-1,2.3,2.3,0,0,0-.574.075c-.583.15-.921.365-1.033.654a1.22,1.22,0,0,0,.282,1.072c.017.026.037.053.056.079h0a.593.593,0,0,1,.135.265,1.193,1.193,0,0,1-.041.357c-.011.051-.022.1-.031.154a1.565,1.565,0,0,0-.17-.062c-.127-.041-.257-.083-.293-.165a4.321,4.321,0,0,0-1.471-1.8,10.523,10.523,0,0,0-2.025-1.09,45.315,45.315,0,0,0-4.669-1.66A26.361,26.361,0,0,0,21.746,1.1c-.476,0-.951.019-1.414.056a12.324,12.324,0,0,0-3.682.915,11.712,11.712,0,0,0-2.817,1.688,19.264,19.264,0,0,0-2.386,2.3,14.329,14.329,0,0,0-1.9,2.729,20.66,20.66,0,0,0-1.318,3.016,17.793,17.793,0,0,0-.815,3.374,23.594,23.594,0,0,0-.225,3.486c0,.28,0,.565.007.841v.008c.009.979.019,1.992-.014,2.986-.073,2.207-.167,4.132-.289,5.883-.053.763-.145,1.517-.243,2.315v0c-.059.484-.12.985-.175,1.5-.031.141-.064.287-.093.416-.066.292-.134.594-.191.893a28.061,28.061,0,0,1-2.1,6.487,11.545,11.545,0,0,1-.834,1.426c-.171.263-.347.534-.508.807a1.035,1.035,0,0,0-.1.365c-.009.059-.019.12-.032.178.053-.021.111-.039.167-.055a.7.7,0,0,0,.322-.154,30.36,30.36,0,0,1,2.24-2.128,22.2,22.2,0,0,0,3.031-3.066,31.487,31.487,0,0,0,2.8-4.423,49.363,49.363,0,0,0,2.166-4.749c.387-.968.757-1.8,1.13-2.531.066-.13.251-.2.43-.274a2.366,2.366,0,0,0,.24-.1Zm38.526-6a1.735,1.735,0,0,0-1.149.618c-.339.317-.127.556.077.787a2.129,2.129,0,0,1,.153.186c.695,1,1.327,1.907,2.034,2.891l.324.585,0,.005c.3.547.616,1.113.936,1.664a1.1,1.1,0,0,0,.256.268c.044.037.09.075.132.115.007-.058.019-.117.03-.175a.937.937,0,0,0,.026-.367c-.07-.327-.139-.661-.206-.983l0-.01c-.24-1.155-.488-2.349-.806-3.5-.017-.063-.035-.128-.052-.191-.194-.728-.395-1.481-1.3-1.8a1.374,1.374,0,0,0-.461-.087Z" fill="#8d929a"/>
      <path id="Path-2" data-name="Path" d="M.7,2.853C.442,2.027.216,1.238.011.444A1.375,1.375,0,0,1,.048,0C.181.08.391.132.434.246c.355.949.7,1.9,1.009,2.869C2.18,5.382,2.9,7.655,3.625,9.927c.442,1.389.825,2.8,1.326,4.167.674,1.838,1.454,3.637,2.155,5.465,1.143,2.98,2.208,5.991,3.408,8.948.719,1.773,1.652,3.459,2.448,5.2.465,1.02.842,2.08,1.275,3.115.184.44.1.833-.322.986-.389.141-.706-.03-.923-.489-1.009-2.132-2.123-4.216-3.1-6.363s-1.875-4.321-2.718-6.518q-1.846-4.81-3.546-9.676c-.494-1.422-.816-2.906-1.177-4.371C1.862,7.992,1.3,5.582.735,3.175.713,3.084.732,2.984.7,2.853Z" transform="translate(33.184 107.068)" fill="#00160a"/>
      <path id="Path-3" data-name="Path" d="M5.67,8.253a12.514,12.514,0,0,1-4.7,1.179.578.578,0,0,1-.212,0C.5,9.315.252,9.187,0,9.065a6.509,6.509,0,0,1,.786-.341A17.458,17.458,0,0,0,2.9,8.14,40.637,40.637,0,0,0,7.058,6.121,6.244,6.244,0,0,0,10.28,1.5a3.618,3.618,0,0,1,.161-.932c.1-.227.367-.381.56-.567.141.187.415.384.4.559A7.8,7.8,0,0,1,9.638,5.471,13.029,13.029,0,0,1,5.67,8.253Z" transform="translate(41.788 40.285)" fill="#8d929a"/>
      <path id="Path-4" data-name="Path" d="M1.165,7.989A13.626,13.626,0,0,1,.578,9.6c-.078.165-.336.244-.513.362-.015-.216-.12-.486-.029-.64C.674,8.245.318,7.12.26,6.006A4.188,4.188,0,0,1,.317,4.892,6.926,6.926,0,0,1,3.427.206c.453-.278.918-.309,1.086.119a1.242,1.242,0,0,1-.355,1.122A7.193,7.193,0,0,0,1.59,5.238,17.251,17.251,0,0,0,1.165,7.989Z" transform="translate(23.748 31.153)" fill="#8d929a"/>
      <path id="Path-5" data-name="Path" d="M4.441.179c.143.264.349.6.253.773a1.111,1.111,0,0,1-.753.494A2.116,2.116,0,0,0,1.729,3.737c-.01.586-.263,1-.85.994-.555-.01-.8-.487-.861-.985A3.3,3.3,0,0,1,2.34.333,2.562,2.562,0,0,1,4.441.179Z" transform="translate(41.91 27.387)" fill="#8d929a"/>
      <path id="Path-6" data-name="Path" d="M2.067,2.17C1.5,2.609,1.613,3.191,1.6,3.741c-.011.524-.179.849-.812.841A.67.67,0,0,1,.034,3.9,3.349,3.349,0,0,1,2.491.067,1.849,1.849,0,0,1,3.858.224c.577.348.368.92-.335,1.2A14.947,14.947,0,0,0,2.067,2.17Z" transform="translate(29.169 39.294)" fill="#8d929a"/>
      <path id="Path-7" data-name="Path" d="M3.983,3.249A2.217,2.217,0,0,1,4.09,5.757c-.417.685-1.41,1.013-1.848.61s-.39-.729.216-1.237c.766-.643.765-.718.35-1.61A12.651,12.651,0,0,0,.25.506,2.042,2.042,0,0,1,0,.014C.213.026.5-.049.628.061c1.106.967,2.184,1.967,3.266,2.961C3.935,3.061,3.93,3.148,3.983,3.249Z" transform="translate(40.402 37.286)" fill="#8d929a"/>
      <path id="Path-8" data-name="Path" d="M4.6,1.024c-.892.048-1.759-.192-2.509.308-.382.255-.674.652-1.068.879a2.424,2.424,0,0,1-.912.112c-.028-.306-.194-.709-.06-.9A3.151,3.151,0,0,1,2.3.044,9.463,9.463,0,0,1,6.84.756c.326.132.684.184,1.011.315a1.91,1.91,0,0,1,.433.344c-.165.06-.336.183-.495.169-.4-.037-.8-.135-1.193-.208C5.955,1.258,5.313,1.141,4.6,1.024Z" transform="translate(39.605 21.682)" fill="#8d929a"/>
      <path id="Path-9" data-name="Path" d="M.236.678C.98-.066,1.515-.186,2.027.261a1.216,1.216,0,0,1,.186.3c-.1.052-.2.154-.29.147C1.25.655.717.8.5,1.54c-.022.078-.215.186-.267.16C.131,1.646-.01,1.5,0,1.409A2.911,2.911,0,0,1,.236.678Z" transform="translate(49.508 49.432)" fill="#8d929a"/>
    </g>
  </g>
</svg>
